<svg xmlns="http://www.w3.org/2000/svg" viewBox="0 0 53 53">
  <defs>
    <style>
      .cls-1 {
        fill: #fff;
      }
      .cls-1,
      .cls-3 {
        stroke: #f9423a;
        stroke-miterlimit: 10;
        stroke-width: 3px;
      }
      .cls-2 {
        fill: #f9423a;
      }
      .cls-3 {
        fill: none;
      }
    </style>
  </defs>
  <title>Asset 15</title>
  <g id="Layer_2" data-name="Layer 2">
    <g id="Layer_3" data-name="Layer 3"><circle class="cls-1" cx="26.5" cy="26.5" r="25"/><circle class="cls-2" cx="17.52" cy="18.7" r="2.25"/><circle class="cls-2" cx="25.9" cy="20.83" r="2.25"/><circle class="cls-2" cx="33.71" cy="23.27" r="2.25"/><circle class="cls-2" cx="20.71" cy="25.08" r="2.25"/><circle class="cls-2" cx="29.08" cy="27.2" r="2.25"/><circle class="cls-2" cx="36.9" cy="29.64" r="2.25"/><circle class="cls-2" cx="17.88" cy="30" r="2.25"/><circle class="cls-2" cx="26.25" cy="32.12" r="2.25"/><circle class="cls-2" cx="34.06" cy="34.56" r="2.25"/><path class="cls-3" d="M9.64,27.24A17.93,17.93,0,0,0,20,41.1a19.8,19.8,0,0,0,8.32,1.77"/><polygon class="cls-2" points="27.79 48.77 36.66 40.74 25.26 37.08 27.79 48.77"/><path class="cls-3" d="M43.36,26A17.93,17.93,0,0,0,33,12.1a19.8,19.8,0,0,0-8.32-1.77"/><polygon class="cls-2" points="25.21 4.43 16.34 12.46 27.74 16.13 25.21 4.43"/></g>
  </g>
</svg>
